<svg width="19" height="20" viewBox="0 0 19 20" fill="none" xmlns="http://www.w3.org/2000/svg">
<path d="M1.02346 9.44029L6.56513 3.89862C6.71444 3.75441 6.91441 3.67462 7.12199 3.67642C7.32956 3.67823 7.52812 3.76148 7.6749 3.90827C7.82168 4.05505 7.90494 4.25361 7.90674 4.46118C7.90855 4.66875 7.82875 4.86873 7.68454 5.01804L3.49425 9.20833H17.4165C17.6265 9.20833 17.8278 9.29174 17.9763 9.4402C18.1248 9.58867 18.2082 9.79003 18.2082 10C18.2082 10.21 18.1248 10.4113 17.9763 10.5598C17.8278 10.7083 17.6265 10.7917 17.4165 10.7917H3.49425L7.68454 14.982C7.76015 15.055 7.82047 15.1423 7.86196 15.2389C7.90345 15.3355 7.92529 15.4394 7.9262 15.5445C7.92711 15.6496 7.90708 15.7539 7.86728 15.8512C7.82747 15.9485 7.76869 16.0369 7.69436 16.1112C7.62002 16.1855 7.53163 16.2443 7.43434 16.2841C7.33705 16.3239 7.2328 16.3439 7.12768 16.343C7.02257 16.3421 6.91868 16.3203 6.8221 16.2788C6.72551 16.2373 6.63815 16.177 6.56513 16.1014L1.02346 10.5597C0.875044 10.4112 0.79167 10.2099 0.79167 10C0.79167 9.79008 0.875044 9.58875 1.02346 9.44029Z" fill="#07232D"/>
</svg>
