<svg width="12" height="12" viewBox="0 0 12 12" fill="none" xmlns="http://www.w3.org/2000/svg">
<g clip-path="url(#clip0_201_14867)">
<path d="M7.09938 6.00983L11.7719 1.33712C12.076 1.03318 12.076 0.541752 11.7719 0.237812C11.468 -0.0661278 10.9766 -0.0661278 10.6726 0.237812L5.99993 4.91052L1.32737 0.237812C1.02329 -0.0661278 0.532002 -0.0661278 0.228062 0.237812C-0.0760206 0.541752 -0.0760206 1.03318 0.228062 1.33712L4.90062 6.00983L0.228062 10.6825C-0.0760206 10.9865 -0.0760206 11.4779 0.228062 11.7818C0.379534 11.9335 0.578696 12.0096 0.777716 12.0096C0.976736 12.0096 1.17576 11.9335 1.32737 11.7818L5.99993 7.10913L10.6726 11.7818C10.8243 11.9335 11.0233 12.0096 11.2223 12.0096C11.4213 12.0096 11.6203 11.9335 11.7719 11.7818C12.076 11.4779 12.076 10.9865 11.7719 10.6825L7.09938 6.00983Z" fill="#07232D"/>
</g>
<defs>
<clipPath id="clip0_201_14867">
<rect width="12" height="12" fill="white"/>
</clipPath>
</defs>
</svg>
